{"title":"The Artist 2011 1080p Brrip x264 Ratzz","uid":7104295,"size":1254319558,"categoryP":"video","categoryS":"hd___movies","magnet":"?xt=urn:btih:02052b5afc114c2319e79c77224b79f9754e58a6&amp;dn=The+Artist+2011+1080p+Brrip+x264+Ratzz&amp;tr=udp%3A%2F%2Ftracker.openbittorrent.com%3A80&amp;tr=udp%3A%2F%2Fopen.demonii.com%3A1337&amp;tr=udp%3A%2F%2Ftracker.coppersurfer.tk%3A6969&amp;tr=udp%3A%2F%2Fexodus.desync.com%3A6969","seeders":1,"leechers":0,"uploader":"afterratzz","files":7,"time":1331812196,"description":"Encoded by Ratzz.\n\n\n\n\n\n\n\n\nGeneral\nComplete name                    : The Artist 2011 1080p Brrip x264 Ratzz.mp4\nFormat                           : MP4\nFormat profile                   : Base Media\nCodec ID                         : isom\nFile size                        : 1.17 GiB\nDuration                         : 1h 40mn\nOverall bit rate                 : 1 664 Kbps\n\nVideo\nID                               : 1\nFormat                           : AVC\nFormat/Info                      : Advanced Video Codec\nFormat profile                   : &lt;a class=&quot;__cf_email__&quot; href=&quot;/cdn-cgi/l/email-protection&quot; data-cfemail=&quot;da92b3bdb29a96eef4ea&quot;&gt;[email&amp;#160;protected]&lt;/a&gt;&lt;script cf-hash='f9e31' type=&quot;text/javascript&quot;&gt;\n/* &lt;![CDATA[ */!function(){try{var t=&quot;currentScript&quot;in document?document.currentScript:function(){for(var t=document.getElementsByTagName(&quot;script&quot;),e=t.length;e--;)if(t[e].getAttribute(&quot;cf-hash&quot;))return t[e]}();if(t&amp;&amp;t.previousSibling){var e,r,n,i,c=t.previousSibling,a=c.getAttribute(&quot;data-cfemail&quot;);if(a){for(e=&quot;&quot;,r=parseInt(a.substr(0,2),16),n=2;a.length-n;n+=2)i=parseInt(a.substr(n,2),16)^r,e+=String.fromCharCode(i);e=document.createTextNode(e),c.parentNode.replaceChild(e,c)}}}catch(u){}}();/* ]]&gt; */&lt;/script&gt;\nFormat settings, CABAC           : Yes\nFormat settings, ReFrames        : 3 frames\nDuration                         : 1h 40mn\nBit rate mode                    : Variable\nBit rate                         : 1 600 Kbps\nMaximum bit rate                 : 25.0 Mbps\nWidth                            : 1 424 pixels\nHeight                           : 1 080 pixels\nDisplay aspect ratio             : 4:3\nFrame rate mode                  : Constant\nFrame rate                       : 23.976 fps\nColor space                      : YUV\nChroma subsampling               : 4:2:0\nBit depth                        : 8 bits\nScan type                        : Progressive\nBits/(Pixel*Frame)               : 0.043\nStream size                      : 1.12 GiB (96%)\n\n\nAudio\nID                               : 2\nFormat                           : AAC\nFormat/Info                      : Advanced Audio Codec\nFormat profile                   : HE-AAC / LC\nCodec ID                         : 40\nDuration                         : 1h 40mn\nBit rate mode                    : Variable\nBit rate                         : 64.0 Kbps\nMaximum bit rate                 : 72.9 Kbps\nChannel(s)                       : 2 channels\nChannel positions                : Front: L R\nSampling rate                    : 48.0 KHz / 24.0 KHz\nCompression mode                 : Lossy\nStream size                      : 46.0 MiB (4%)\nLanguage                         : French\n\n\n\n\n\n\nSubtitles                       : eng .srt file included.\n\n\n\n\n\n\nPoster :\n &lt;a href=&quot;\nhttp://img707.imageshack.us/img707/9287/theartist20111080pbrrip.jpg&quot; rel=&quot;nofollow&quot; target=&quot;_NEW&quot;&gt;\nhttp://img707.imageshack.us/img707/9287/theartist20111080pbrrip.jpg&lt;/a&gt;\n\n\n\nScreens :\n\n &lt;a href=&quot;\nhttp://img20.imageshack.us/img20/9287/theartist20111080pbrrip.jpg&quot; rel=&quot;nofollow&quot; target=&quot;_NEW&quot;&gt;\nhttp://img20.imageshack.us/img20/9287/theartist20111080pbrrip.jpg&lt;/a&gt;\n &lt;a href=&quot;\nhttp://img401.imageshack.us/img401/9287/theartist20111080pbrrip.jpg&quot; rel=&quot;nofollow&quot; target=&quot;_NEW&quot;&gt;\nhttp://img401.imageshack.us/img401/9287/theartist20111080pbrrip.jpg&lt;/a&gt;\n &lt;a href=&quot;\nhttp://img195.imageshack.us/img195/9287/theartist20111080pbrrip.jpg&quot; rel=&quot;nofollow&quot; target=&quot;_NEW&quot;&gt;\nhttp://img195.imageshack.us/img195/9287/theartist20111080pbrrip.jpg&lt;/a&gt;\n\n\n\n\n\npls seed back after download and provide feedback.\nthank you.","torrent":{"xt":"urn:btih:02052b5afc114c2319e79c77224b79f9754e58a6","amp;dn":"The+Artist+2011+1080p+Brrip+x264+Ratzz","amp;tr":["udp%3A%2F%2Ftracker.openbittorrent.com%3A80","udp%3A%2F%2Fopen.demonii.com%3A1337","udp%3A%2F%2Ftracker.coppersurfer.tk%3A6969","udp%3A%2F%2Fexodus.desync.com%3A6969"],"infoHash":"02052b5afc114c2319e79c77224b79f9754e58a6","infoHashBuffer":{"type":"Buffer","data":[2,5,43,90,252,17,76,35,25,231,156,119,34,75,121,249,117,78,88,166]},"announce":[],"urlList":[]}}